<mxfile host="app.diagrams.net" modified="2020-08-12T02:50:00.670Z" agent="5.0 (Windows NT 10.0; Win64; x64) AppleWebKit/537.36 (KHTML, like Gecko) Chrome/84.0.4147.105 Safari/537.36" etag="JxLEjGmiZEcqgKTZDAVO" version="13.6.2" type="github">
  <diagram id="i6kCx9NI3hYWjmTnmdQN" name="Page-1">
    <mxGraphModel dx="868" dy="450" grid="1" gridSize="10" guides="1" tooltips="1" connect="1" arrows="1" fold="1" page="1" pageScale="1" pageWidth="827" pageHeight="1169" math="0" shadow="0">
      <root>
        <mxCell id="0" />
        <mxCell id="1" parent="0" />
        <mxCell id="2ZYAoAdxuoeJK0KdXeyL-1" value="" style="shape=table;html=1;whiteSpace=wrap;startSize=0;container=1;collapsible=0;childLayout=tableLayout;" vertex="1" parent="1">
          <mxGeometry x="250" y="560" width="330" height="40" as="geometry" />
        </mxCell>
        <mxCell id="2ZYAoAdxuoeJK0KdXeyL-2" value="" style="shape=partialRectangle;html=1;whiteSpace=wrap;collapsible=0;dropTarget=0;pointerEvents=0;fillColor=none;top=0;left=0;bottom=0;right=0;points=[[0,0.5],[1,0.5]];portConstraint=eastwest;" vertex="1" parent="2ZYAoAdxuoeJK0KdXeyL-1">
          <mxGeometry width="330" height="40" as="geometry" />
        </mxCell>
        <mxCell id="2ZYAoAdxuoeJK0KdXeyL-3" value="&lt;span&gt;&lt;u&gt;dno&lt;/u&gt;&lt;/span&gt;" style="shape=partialRectangle;html=1;whiteSpace=wrap;connectable=0;overflow=hidden;fillColor=none;top=0;left=0;bottom=0;right=0;" vertex="1" parent="2ZYAoAdxuoeJK0KdXeyL-2">
          <mxGeometry width="83" height="40" as="geometry" />
        </mxCell>
        <mxCell id="2ZYAoAdxuoeJK0KdXeyL-4" value="&lt;span&gt;dname&lt;/span&gt;" style="shape=partialRectangle;html=1;whiteSpace=wrap;connectable=0;overflow=hidden;fillColor=none;top=0;left=0;bottom=0;right=0;" vertex="1" parent="2ZYAoAdxuoeJK0KdXeyL-2">
          <mxGeometry x="83" width="82" height="40" as="geometry" />
        </mxCell>
        <mxCell id="2ZYAoAdxuoeJK0KdXeyL-5" value="&lt;span&gt;budget&lt;/span&gt;" style="shape=partialRectangle;html=1;whiteSpace=wrap;connectable=0;overflow=hidden;fillColor=none;top=0;left=0;bottom=0;right=0;" vertex="1" parent="2ZYAoAdxuoeJK0KdXeyL-2">
          <mxGeometry x="165" width="83" height="40" as="geometry" />
        </mxCell>
        <mxCell id="2ZYAoAdxuoeJK0KdXeyL-6" value="&lt;span&gt;manager_ID&lt;/span&gt;" style="shape=partialRectangle;html=1;whiteSpace=wrap;connectable=0;overflow=hidden;fillColor=none;top=0;left=0;bottom=0;right=0;" vertex="1" parent="2ZYAoAdxuoeJK0KdXeyL-2">
          <mxGeometry x="248" width="82" height="40" as="geometry" />
        </mxCell>
        <mxCell id="2ZYAoAdxuoeJK0KdXeyL-8" value="" style="shape=table;html=1;whiteSpace=wrap;startSize=0;container=1;collapsible=0;childLayout=tableLayout;" vertex="1" parent="1">
          <mxGeometry x="250" y="680" width="180" height="40" as="geometry" />
        </mxCell>
        <mxCell id="2ZYAoAdxuoeJK0KdXeyL-9" value="" style="shape=partialRectangle;html=1;whiteSpace=wrap;collapsible=0;dropTarget=0;pointerEvents=0;fillColor=none;top=0;left=0;bottom=0;right=0;points=[[0,0.5],[1,0.5]];portConstraint=eastwest;" vertex="1" parent="2ZYAoAdxuoeJK0KdXeyL-8">
          <mxGeometry width="180" height="40" as="geometry" />
        </mxCell>
        <mxCell id="2ZYAoAdxuoeJK0KdXeyL-10" value="&lt;u&gt;snn&lt;/u&gt;" style="shape=partialRectangle;html=1;whiteSpace=wrap;connectable=0;overflow=hidden;fillColor=none;top=0;left=0;bottom=0;right=0;" vertex="1" parent="2ZYAoAdxuoeJK0KdXeyL-9">
          <mxGeometry width="60" height="40" as="geometry" />
        </mxCell>
        <mxCell id="2ZYAoAdxuoeJK0KdXeyL-11" value="&lt;span&gt;name&lt;/span&gt;" style="shape=partialRectangle;html=1;whiteSpace=wrap;connectable=0;overflow=hidden;fillColor=none;top=0;left=0;bottom=0;right=0;fontStyle=0" vertex="1" parent="2ZYAoAdxuoeJK0KdXeyL-9">
          <mxGeometry x="60" width="60" height="40" as="geometry" />
        </mxCell>
        <mxCell id="2ZYAoAdxuoeJK0KdXeyL-12" value="age" style="shape=partialRectangle;html=1;whiteSpace=wrap;connectable=0;overflow=hidden;fillColor=none;top=0;left=0;bottom=0;right=0;" vertex="1" parent="2ZYAoAdxuoeJK0KdXeyL-9">
          <mxGeometry x="120" width="60" height="40" as="geometry" />
        </mxCell>
        <mxCell id="2ZYAoAdxuoeJK0KdXeyL-13" value="" style="shape=table;html=1;whiteSpace=wrap;startSize=0;container=1;collapsible=0;childLayout=tableLayout;" vertex="1" parent="1">
          <mxGeometry x="250" y="440" width="344" height="40" as="geometry" />
        </mxCell>
        <mxCell id="2ZYAoAdxuoeJK0KdXeyL-14" value="" style="shape=partialRectangle;html=1;whiteSpace=wrap;collapsible=0;dropTarget=0;pointerEvents=0;fillColor=none;top=0;left=0;bottom=0;right=0;points=[[0,0.5],[1,0.5]];portConstraint=eastwest;" vertex="1" parent="2ZYAoAdxuoeJK0KdXeyL-13">
          <mxGeometry width="344" height="40" as="geometry" />
        </mxCell>
        <mxCell id="2ZYAoAdxuoeJK0KdXeyL-15" value="&lt;u&gt;snn&lt;/u&gt;" style="shape=partialRectangle;html=1;whiteSpace=wrap;connectable=0;overflow=hidden;fillColor=none;top=0;left=0;bottom=0;right=0;" vertex="1" parent="2ZYAoAdxuoeJK0KdXeyL-14">
          <mxGeometry width="86" height="40" as="geometry" />
        </mxCell>
        <mxCell id="2ZYAoAdxuoeJK0KdXeyL-16" value="salary" style="shape=partialRectangle;html=1;whiteSpace=wrap;connectable=0;overflow=hidden;fillColor=none;top=0;left=0;bottom=0;right=0;" vertex="1" parent="2ZYAoAdxuoeJK0KdXeyL-14">
          <mxGeometry x="86" width="86" height="40" as="geometry" />
        </mxCell>
        <mxCell id="2ZYAoAdxuoeJK0KdXeyL-17" value="phone" style="shape=partialRectangle;html=1;whiteSpace=wrap;connectable=0;overflow=hidden;fillColor=none;top=0;left=0;bottom=0;right=0;" vertex="1" parent="2ZYAoAdxuoeJK0KdXeyL-14">
          <mxGeometry x="172" width="86" height="40" as="geometry" />
        </mxCell>
        <mxCell id="2ZYAoAdxuoeJK0KdXeyL-18" value="dno" style="shape=partialRectangle;html=1;whiteSpace=wrap;connectable=0;overflow=hidden;fillColor=none;top=0;left=0;bottom=0;right=0;" vertex="1" parent="2ZYAoAdxuoeJK0KdXeyL-14">
          <mxGeometry x="258" width="86" height="40" as="geometry" />
        </mxCell>
        <mxCell id="2ZYAoAdxuoeJK0KdXeyL-19" value="Employees" style="text;html=1;align=center;verticalAlign=middle;resizable=0;points=[];autosize=1;" vertex="1" parent="1">
          <mxGeometry x="245" y="410" width="70" height="20" as="geometry" />
        </mxCell>
        <mxCell id="2ZYAoAdxuoeJK0KdXeyL-20" value="Department" style="text;html=1;align=center;verticalAlign=middle;resizable=0;points=[];autosize=1;" vertex="1" parent="1">
          <mxGeometry x="240" y="530" width="80" height="20" as="geometry" />
        </mxCell>
        <mxCell id="2ZYAoAdxuoeJK0KdXeyL-21" value="Children of employes" style="text;html=1;align=center;verticalAlign=middle;resizable=0;points=[];autosize=1;" vertex="1" parent="1">
          <mxGeometry x="245" y="650" width="130" height="20" as="geometry" />
        </mxCell>
        <mxCell id="2ZYAoAdxuoeJK0KdXeyL-22" value="" style="endArrow=classic;html=1;exitX=0;exitY=0.5;exitDx=0;exitDy=0;entryX=0;entryY=0.75;entryDx=0;entryDy=0;entryPerimeter=0;edgeStyle=orthogonalEdgeStyle;curved=1;" edge="1" parent="1" source="2ZYAoAdxuoeJK0KdXeyL-9" target="2ZYAoAdxuoeJK0KdXeyL-14">
          <mxGeometry width="50" height="50" relative="1" as="geometry">
            <mxPoint x="520" y="640" as="sourcePoint" />
            <mxPoint x="570" y="590" as="targetPoint" />
            <Array as="points">
              <mxPoint x="230" y="700" />
              <mxPoint x="230" y="470" />
            </Array>
          </mxGeometry>
        </mxCell>
        <mxCell id="2ZYAoAdxuoeJK0KdXeyL-23" value="" style="endArrow=classic;html=1;edgeStyle=orthogonalEdgeStyle;curved=1;entryX=0.143;entryY=0;entryDx=0;entryDy=0;entryPerimeter=0;" edge="1" parent="1" target="2ZYAoAdxuoeJK0KdXeyL-2">
          <mxGeometry width="50" height="50" relative="1" as="geometry">
            <mxPoint x="540" y="482" as="sourcePoint" />
            <mxPoint x="570" y="590" as="targetPoint" />
            <Array as="points">
              <mxPoint x="540" y="482" />
              <mxPoint x="540" y="520" />
              <mxPoint x="309" y="520" />
            </Array>
          </mxGeometry>
        </mxCell>
        <mxCell id="2ZYAoAdxuoeJK0KdXeyL-25" value="" style="endArrow=classic;html=1;edgeStyle=orthogonalEdgeStyle;curved=1;entryX=0.096;entryY=1.075;entryDx=0;entryDy=0;entryPerimeter=0;" edge="1" parent="1" target="2ZYAoAdxuoeJK0KdXeyL-14">
          <mxGeometry width="50" height="50" relative="1" as="geometry">
            <mxPoint x="550" y="560" as="sourcePoint" />
            <mxPoint x="570" y="590" as="targetPoint" />
            <Array as="points">
              <mxPoint x="550" y="540" />
              <mxPoint x="283" y="540" />
            </Array>
          </mxGeometry>
        </mxCell>
      </root>
    </mxGraphModel>
  </diagram>
</mxfile>
